<?xml version="1.0" standalone="no"?>
<!DOCTYPE svg PUBLIC "-//W3C//DTD SVG 20010904//EN"
 "http://www.w3.org/TR/2001/REC-SVG-20010904/DTD/svg10.dtd">
<svg version="1.0" xmlns="http://www.w3.org/2000/svg"
 width="400.000000pt" height="400.000000pt" viewBox="0 0 400.000000 400.000000"
 preserveAspectRatio="xMidYMid meet">

<g transform="translate(0.000000,400.000000) scale(0.100000,-0.100000)"
fill="#000000" stroke="none">
<path d="M3424 3490 c-22 -11 -71 -46 -109 -78 -37 -31 -73 -61 -80 -66 -20
-15 -82 2 -88 24 -5 21 -36 27 -53 10 -16 -16 -60 4 -67 31 -5 18 -10 20 -29
14 -13 -5 -43 -8 -67 -7 -41 1 -71 -10 -71 -27 0 -4 49 -48 110 -97 60 -49
110 -93 110 -99 0 -5 -31 -38 -69 -72 l-69 -63 -56 12 c-53 10 -58 10 -81 -12
-14 -13 -25 -26 -25 -30 0 -4 23 -19 50 -34 54 -29 58 -37 35 -56 -17 -14 -20
-40 -5 -40 6 0 22 7 35 16 25 16 25 16 40 -22 31 -77 35 -84 48 -84 31 0 47
35 47 103 l0 66 69 56 c39 30 74 55 78 55 4 0 44 -61 88 -135 89 -151 110
-166 110 -79 0 29 6 59 14 67 15 19 6 57 -15 57 -20 0 -18 60 2 75 19 13 11
55 -11 55 -16 0 -25 22 -25 59 0 21 15 41 65 85 36 32 81 81 100 109 71 105
28 161 -81 107z"/>
<path d="M2787 2852 c-15 -16 -24 -32 -20 -35 7 -8 63 41 63 55 0 15 -16 8
-43 -20z"/>
<path d="M2650 2713 c-27 -31 -37 -49 -29 -52 13 -4 89 73 89 90 0 20 -20 7
-60 -38z"/>
<path d="M2511 2548 c-43 -58 -39 -83 5 -33 48 55 59 75 40 75 -8 0 -28 -19
-45 -42z"/>
<path d="M2387 2366 c-20 -30 -33 -57 -28 -60 17 -11 88 91 74 105 -6 6 -23
-10 -46 -45z"/>
<path d="M2246 2200 c-56 -56 -41 -74 17 -21 26 24 47 47 47 52 0 19 -27 6
-64 -31z"/>
<path d="M2075 2086 c-51 -21 -71 -44 -34 -38 29 5 87 30 93 41 12 18 -10 17
-59 -3z"/>
<path d="M1626 2061 c-63 -10 -58 -31 6 -25 66 7 78 11 78 24 0 11 -21 11 -84
1z"/>
<path d="M1097 2053 c-17 -17 -2 -23 58 -23 36 0 65 4 65 9 0 16 -109 29 -123
14z"/>
<path d="M1800 2051 c0 -11 106 -25 120 -16 6 4 8 11 5 16 -8 12 -125 12 -125
0z"/>
<path d="M921 2026 c-19 -7 -37 -18 -39 -26 -3 -9 1 -11 13 -6 10 3 37 11 61
17 46 12 60 30 22 28 -13 0 -38 -6 -57 -13z"/>
<path d="M1310 2020 c0 -6 8 -13 18 -16 64 -21 72 -27 61 -41 -7 -7 -9 -16 -6
-19 7 -7 117 56 117 67 0 12 -6 11 -39 -6 -25 -13 -33 -12 -80 5 -58 23 -71
24 -71 10z"/>
<path d="M737 1940 c-41 -26 -61 -50 -40 -50 12 0 103 62 103 71 0 15 -14 10
-63 -21z"/>
<path d="M1510 1930 c0 -11 84 -70 100 -70 17 0 2 19 -42 51 -43 30 -58 36
-58 19z"/>
<path d="M1262 1857 c-44 -45 -50 -57 -29 -57 16 1 90 87 79 94 -5 3 -27 -14
-50 -37z"/>
<path d="M571 1784 c-18 -25 -30 -48 -26 -52 7 -7 84 76 85 91 1 22 -31 1 -59
-39z"/>
<path d="M1670 1794 c0 -10 72 -94 81 -94 16 0 10 16 -23 58 -28 36 -58 55
-58 36z"/>
<path d="M1135 1680 c-26 -52 -31 -70 -16 -70 8 0 61 95 61 111 0 24 -22 4
-45 -41z"/>
<path d="M475 1617 c-21 -51 -28 -87 -17 -87 5 0 19 25 31 56 24 65 24 64 10
64 -5 0 -16 -15 -24 -33z"/>
<path d="M1804 1597 c10 -43 36 -97 46 -97 13 0 13 1 -11 65 -20 54 -47 78
-35 32z"/>
<path d="M1071 1508 c-4 -13 -11 -43 -15 -66 -10 -67 15 -48 29 22 12 57 2 87
-14 44z"/>
<path d="M416 1403 c-8 -54 -7 -93 3 -93 9 0 21 57 21 103 0 40 -16 33 -24
-10z"/>
<path d="M1862 1348 c2 -35 7 -62 13 -61 13 3 18 48 10 90 -10 57 -26 37 -23
-29z"/>
<path d="M1050 1283 c0 -40 19 -103 31 -103 6 0 8 12 5 28 -3 15 -8 44 -12 65
-7 43 -24 50 -24 10z"/>
<path d="M412 1165 c2 -40 7 -69 13 -67 12 3 7 113 -6 127 -7 6 -9 -15 -7 -60z"/>
<path d="M1837 1158 c-8 -24 -18 -51 -22 -60 -4 -11 -3 -18 4 -18 12 0 51 81
51 106 0 29 -19 13 -33 -28z"/>
<path d="M1110 1087 c0 -17 59 -97 71 -97 15 0 11 11 -23 62 -33 48 -48 59
-48 35z"/>
<path d="M434 984 c20 -82 28 -104 36 -104 13 0 12 15 -3 74 -7 27 -19 52 -26
54 -11 4 -12 -2 -7 -24z"/>
<path d="M1708 971 c-50 -38 -58 -51 -33 -51 20 0 101 75 89 82 -5 3 -30 -11
-56 -31z"/>
<path d="M1250 930 c0 -10 91 -60 110 -60 23 0 7 17 -43 43 -57 29 -67 32 -67
17z"/>
<path d="M1511 879 c-47 -9 -58 -15 -48 -25 11 -11 110 10 115 24 4 13 -4 14
-67 1z"/>
<path d="M490 791 c0 -19 43 -121 51 -121 13 0 11 14 -12 75 -11 30 -25 55
-30 55 -5 0 -9 -4 -9 -9z"/>
<path d="M570 586 c0 -20 51 -116 59 -111 12 7 -29 107 -47 113 -7 2 -12 1
-12 -2z"/>
</g>
</svg>
